<svg id="Layer_1" data-name="Layer 1" xmlns="http://www.w3.org/2000/svg" viewBox="0 0 767 768"><defs><style>.cls-1{fill:#fff;}.cls-2{fill:#6a67ad;}</style></defs><title>discord</title><path class="cls-1" d="M384.5,762C593,762,762,593,762,384.47S593,7,384.5,7,7,176.07,7,384.47,176.1,762,384.5,762Z"/><path class="cls-2" d="M442.57,223.59a235.5,235.5,0,0,0-11.1,22.54,324.14,324.14,0,0,0-96.05,0,235.5,235.5,0,0,0-11.1-22.54,354.07,354.07,0,0,0-86.6,26.65c-54.74,81.05-69.62,160-62.18,237.93a349.49,349.49,0,0,0,106.15,53.3,265.17,265.17,0,0,0,22.76-36.64,235.85,235.85,0,0,1-35.87-17.1c3-2.22,6-4.44,8.78-6.66a249,249,0,0,0,212.17,0c2.89,2.33,5.89,4.66,8.78,6.66a231,231,0,0,1-35.87,17.1,265.17,265.17,0,0,0,22.76,36.64,347.36,347.36,0,0,0,106.26-53.3c8.66-90.26-14.88-168.54-62.4-237.93a342.38,342.38,0,0,0-86.49-26.65ZM351.52,398.35c-.33,23.09-16.65,42-37.75,42-20.65,0-37.75-18.88-37.75-42s16.55-42,37.75-42,38.2,19,37.75,42Zm139.35,0c-.34,23.09-16.66,42-37.75,42-20.66,0-37.64-18.88-37.64-42s16.43-42,37.64-42,38.08,19,37.75,42Z"/></svg>