<svg xmlns="http://www.w3.org/2000/svg" class="img-fluid" id="outputsvg" style="transform: matrix(1.11388, 0, 0, 1.11388, 0, 0); transform-origin: 50% 50%; cursor: move; transition: transform 200ms ease-in-out 0s;" width="2000" height="2000" viewBox="0 0 20000 20000"><g id="l2NYRlc4fDhFs4TJxvFqIwT" fill="rgb(16,238,170)" style="transform: none;"><g><path id="pn5FK1VED" d="M18440 3256 c-327 -171 -918 -480 -1312 -686 -542 -283 -718 -379 -718 -393 0 -17 73 -17 1663 -15 1517 3 1666 4 1705 20 106 40 178 123 207 235 19 73 10 144 -26 215 -14 29 -170 193 -467 491 -246 246 -449 447 -452 446 -3 0 -273 -141 -600 -313z"></path></g></g><g id="l2yKDp9zJgjSKIsmKymY6ND" fill="rgb(28,227,175)" style="transform: none;"><g><path id="p7YB57QPK" d="M16845 3669 c-759 -396 -1591 -831 -1850 -966 -259 -135 -584 -304 -722 -377 -183 -95 -253 -136 -253 -148 0 -17 64 -18 1205 -18 l1205 0 688 359 c378 198 968 506 1312 685 343 180 628 330 632 334 4 4 -182 198 -415 430 l-422 422 -1380 -721z"></path></g></g><g id="l3znZP7BEqPbOBtFqqqggl8" fill="rgb(37,217,179)" style="transform: none;"><g><path id="pT0dyeJOM" d="M14578 3687 c-2145 -1120 -2858 -1496 -2858 -1509 0 -17 62 -18 1161 -18 l1162 0 376 196 c207 109 666 349 1021 534 355 185 1131 590 1725 900 594 310 1082 565 1085 567 2 2 -180 188 -405 413 l-410 410 -2857 -1493z"></path></g></g><g id="l7YQmtE9pQ4ZyCGPTSIKHzx" fill="rgb(47,207,183)" style="transform: none;"><g><path id="pTIE7k4Xh" d="M15520 5244 c-668 -349 -1588 -830 -2045 -1069 -456 -238 -1219 -636 -1695 -885 -476 -248 -1143 -596 -1482 -773 -456 -238 -618 -327 -618 -339 0 -17 56 -18 1030 -18 l1031 0 2857 1492 c1571 820 2859 1493 2862 1495 2 2 -160 168 -360 368 l-365 364 -1215 -635z"></path></g></g><g id="l4qq84Huo2feZz9jQlUVyaf" fill="rgb(55,199,186)" style="transform: none;"><g><path id="prPMX9Jpm" d="M15145 5927 c-138 -73 -1802 -942 -3698 -1932 -2584 -1350 -3447 -1804 -3447 -1817 0 -17 47 -18 852 -18 l851 0 601 314 c331 172 1004 524 1496 781 492 257 1095 572 1340 700 245 128 1158 605 2030 1060 872 455 1587 829 1589 831 3 2 -6 16 -20 30 -43 48 -170 123 -253 151 l-81 28 -505 2 -505 2 -250 -132z"></path></g></g><g id="l641g75SUjzQDaOp1HB1z6b" fill="rgb(63,191,189)" style="transform: none;"><g><path id="p93S0OG6s" d="M12530 5439 c-652 -341 -2316 -1210 -3698 -1931 -1902 -994 -2512 -1317 -2512 -1330 0 -17 44 -18 851 -18 l851 0 1031 539 c568 296 2245 1172 3727 1946 1482 774 2697 1409 2699 1411 2 2 -394 4 -880 3 l-884 0 -1185 -620z"></path></g></g><g id="l7hYGYQJ5G2MO5Qqa8ciRWy" fill="rgb(69,185,192)" style="transform: none;"><g><path id="pu70fbbH0" d="M17124 8746 c-116 -61 -461 -241 -767 -401 -422 -220 -557 -294 -557 -308 0 -17 16 -18 318 -15 314 3 318 4 384 29 136 53 168 79 543 451 345 343 359 358 325 357 -24 -1 -102 -37 -246 -113z"></path><path id="p10n6ZXxoC" d="M11495 5806 c-264 -138 -757 -396 -1095 -573 -338 -176 -1513 -790 -2610 -1363 -1097 -573 -2268 -1184 -2602 -1358 -449 -234 -608 -322 -608 -334 0 -17 48 -18 880 -18 l880 0 333 174 c182 95 1851 967 3707 1936 1856 969 3386 1768 3400 1776 21 11 -119 13 -890 13 l-915 -1 -480 -252z"></path></g></g><g id="l7fUThPBgMXkmgyX5TygBlt" fill="rgb(77,176,195)" style="transform: none;"><g><path id="pSiCD5t4l" d="M18945 10779 c-357 -187 -1068 -559 -1580 -826 -511 -267 -1126 -588 -1365 -713 -239 -125 -795 -415 -1235 -645 -440 -230 -853 -445 -917 -479 -201 -104 -281 -96 929 -96 l1046 0 611 319 c336 175 685 358 776 405 l165 86 1145 1145 c1091 1091 1143 1145 1110 1144 -26 0 -203 -88 -685 -340z"></path><path id="p157b5KdoF" d="M9720 5961 c-102 -54 -403 -211 -670 -351 -267 -139 -681 -355 -920 -480 -1315 -687 -1624 -848 -2235 -1167 -368 -193 -1028 -537 -1465 -765 -437 -229 -915 -478 -1063 -555 l-267 -140 97 -94 c162 -156 281 -219 449 -239 49 -5 284 -10 523 -10 l434 0 606 316 c911 476 4545 2374 5201 2717 1423 743 1645 859 1649 863 2 2 -481 4 -1075 3 l-1079 0 -185 -98z"></path></g></g><g id="l7dPPJTmpfU4DDA4lakTrCS" fill="rgb(86,167,199)" style="transform: none;"><g><path id="poOw5X6fv" d="M18745 11637 c-286 -150 -898 -470 -1360 -712 -462 -241 -1168 -610 -1570 -820 -401 -209 -1449 -756 -2327 -1215 -1217 -635 -1598 -839 -1598 -852 0 -17 43 -18 932 -18 l931 0 131 69 c72 38 329 172 571 299 489 255 1568 818 2925 1527 492 257 1201 627 1575 822 l680 354 153 154 c120 121 159 167 179 212 70 153 0 344 -155 420 l-57 28 -245 2 -245 3 -520 -273z"></path><path id="p1wWwV2wz" d="M7735 5886 c-181 -95 -796 -416 -1365 -713 -981 -513 -1727 -902 -3238 -1691 l-663 -346 328 -328 c180 -180 332 -328 337 -328 5 0 129 62 275 139 146 76 622 324 1056 551 435 227 1092 570 1460 763 654 341 1465 764 2130 1112 619 323 1239 647 1585 828 190 99 347 181 349 183 2 2 -430 4 -960 4 l-964 -1 -330 -173z"></path></g></g><g id="l6SNWx1QmoPuZQtl5ZGvQHS" fill="rgb(94,159,202)" style="transform: none;"><g><path id="pqerzybRS" d="M17095 11736 c-181 -95 -798 -417 -1370 -716 -1504 -785 -3356 -1752 -4375 -2285 -487 -254 -978 -511 -1092 -570 -155 -81 -208 -113 -208 -127 0 -17 36 -18 930 -18 l929 0 1563 816 c860 449 1921 1003 2358 1232 1459 762 2340 1222 2920 1524 316 166 582 304 590 309 8 5 -419 8 -950 8 l-965 0 -330 -173z"></path><path id="p1CL4JwoOj" d="M5980 5931 c-244 -128 -4044 -2112 -4109 -2146 l-34 -17 329 -329 c181 -181 332 -329 335 -329 4 0 294 150 645 334 1686 880 4179 2182 4614 2409 201 104 372 194 380 198 8 5 -419 8 -950 9 l-965 0 -245 -129z"></path></g></g><g id="l3ngNIu9E8ZQfVoMzOkp4Vg" fill="rgb(103,151,206)" style="transform: none;"><g><path id="pi58WDtSK" d="M19650 14135 c-231 -121 -296 -159 -298 -176 -4 -21 -3 -21 200 -17 198 3 204 4 260 31 98 48 168 149 183 265 l7 52 -29 0 c-16 -1 -151 -65 -323 -155z"></path><path id="p17FWHWUTC" d="M15085 11751 c-165 -87 -867 -454 -1560 -816 -1218 -636 -2482 -1296 -3595 -1877 -1897 -991 -1920 -1003 -1920 -1020 0 -17 56 -18 1029 -18 l1030 0 198 104 c475 249 6110 3191 6853 3579 201 104 372 194 380 198 8 5 -464 8 -1050 8 l-1065 0 -300 -158z"></path><path id="ptWAZ6Vn" d="M2995 5437 c-655 -343 -1340 -701 -1523 -796 l-334 -174 365 -365 365 -365 1953 1021 c1075 561 2076 1083 2224 1161 l270 141 -1065 -1 -1065 0 -1190 -622z"></path></g></g><g id="l6dMljIPNxqQpNEQtPaRliM" fill="rgb(110,143,209)" style="transform: none;"><g><path id="p1HfZtC2hW" d="M19379 14861 c-48 -25 -449 -235 -893 -466 -596 -311 -805 -425 -806 -437 0 -17 47 -18 843 -18 l843 0 314 164 315 165 -3 38 c-8 91 -41 135 -279 375 -125 125 -232 227 -238 227 -5 -1 -49 -22 -96 -48z"></path><path id="pKCrv4daF" d="M13520 11801 c-113 -59 -567 -297 -1010 -528 -994 -519 -2373 -1239 -3365 -1758 -412 -215 -1210 -632 -1772 -925 -776 -406 -1023 -539 -1023 -552 0 -17 40 -18 840 -18 l841 0 897 469 c493 258 1205 629 1582 826 377 197 933 487 1235 645 1518 793 2645 1381 3155 1648 311 162 567 296 569 298 2 2 -389 4 -870 4 l-874 -1 -205 -108z"></path><path id="pJ61NV4wl" d="M2430 6009 c-52 -28 -492 -258 -978 -511 l-883 -461 298 -299 c164 -164 300 -298 303 -298 3 0 129 65 280 144 151 79 838 437 1525 796 688 359 1261 658 1275 666 21 11 -113 13 -850 13 l-875 1 -95 -51z"></path></g></g><g id="l72Vdj1nPNno8QZEiltMXS" fill="rgb(118,135,212)" style="transform: none;"><g><path id="peScMczvo" d="M17163 14806 c-1183 -617 -1592 -835 -1593 -848 0 -17 57 -18 1067 -18 l1067 0 885 462 c488 254 894 467 903 473 15 10 -33 61 -360 387 l-377 376 -1592 -832z"></path><path id="pnXsuLGNr" d="M11095 11637 c-286 -150 -898 -470 -1360 -712 -462 -241 -1168 -610 -1570 -820 -401 -209 -1449 -756 -2327 -1215 -1217 -635 -1598 -839 -1598 -852 0 -17 49 -18 1065 -18 l1064 0 998 521 c549 287 1354 707 1788 934 1404 733 4017 2098 4400 2298 138 71 252 132 254 134 2 1 -490 3 -1095 2 l-1099 0 -520 -272z"></path><path id="p1Fz3YB6z5" d="M222 5958 c-150 -78 -196 -108 -204 -127 -6 -14 -11 -58 -11 -96 -1 -128 15 -150 321 -457 147 -148 271 -267 277 -266 9 3 802 416 1770 922 l240 126 -1100 -1 -1100 0 -193 -101z"></path></g></g><g id="ljtr7yQRnu2mcInj5GsmDf" fill="rgb(127,125,216)" style="transform: none;"><g><path id="pS1gWE60p" d="M17750 16286 c-129 -67 -399 -208 -600 -313 -201 -105 -768 -401 -1260 -658 -492 -257 -1201 -627 -1575 -823 -374 -195 -751 -391 -837 -436 -112 -57 -158 -86 -158 -98 0 -17 61 -18 1137 -18 l1137 0 1593 832 c876 457 1593 834 1593 837 0 3 -179 185 -397 403 l-398 397 -235 -123z"></path><path id="pVaJorn0u" d="M8845 11637 c-286 -150 -898 -470 -1360 -712 -462 -241 -1168 -610 -1570 -820 -401 -209 -1449 -756 -2327 -1215 -1217 -635 -1598 -839 -1598 -852 0 -17 51 -18 1135 -18 l1134 0 1563 816 c860 449 1921 1003 2358 1232 1459 762 2340 1222 2920 1524 316 166 582 304 590 309 8 5 -511 8 -1155 8 l-1170 0 -520 -272z"></path><path id="pVKgcoviM" d="M240 6046 c-85 -22 -158 -82 -199 -164 -44 -88 -43 -88 91 -18 68 36 179 94 248 130 l125 66 -110 -1 c-60 0 -130 -6 -155 -13z"></path></g></g><g id="l48pbpZCuyKWWBgiHqOoO7W" fill="rgb(137,116,220)" style="transform: none;"><g><path id="pFTKx7jMN" d="M15315 16044 c-2913 -1522 -3143 -1642 -3572 -1865 -287 -149 -392 -209 -393 -221 0 -17 54 -18 997 -18 l996 0 171 89 c94 49 468 244 831 433 363 190 1072 560 1575 823 503 263 1059 553 1235 645 176 92 439 229 585 305 146 76 267 140 270 142 6 6 -693 703 -705 702 -5 0 -901 -466 -1990 -1035z"></path><path id="poUXZEqmK" d="M6975 11689 c-231 -121 -989 -518 -1685 -881 -696 -363 -1611 -842 -2035 -1063 -1852 -968 -2589 -1352 -2857 -1491 -158 -82 -287 -151 -288 -154 0 -9 69 -52 107 -66 31 -11 205 -13 915 -14 l877 0 1563 816 c860 449 1921 1003 2358 1232 1459 762 2340 1222 2920 1524 316 166 582 304 590 309 8 5 -448 8 -1015 8 l-1030 0 -420 -220z"></path></g></g><g id="lcpfGNoT7IXSV5cp8WVC4H" fill="rgb(145,108,223)" style="transform: none;"><g><path id="pehbzlAmN" d="M15335 17034 c-720 -377 -1683 -880 -2140 -1119 -456 -238 -1129 -589 -1495 -780 -366 -191 -912 -477 -1215 -635 -302 -158 -652 -341 -777 -406 -167 -87 -228 -123 -228 -136 0 -17 48 -18 947 -18 l948 0 755 394 c979 512 1841 962 3697 1931 l1513 790 -283 283 c-264 265 -388 383 -405 381 -4 0 -596 -308 -1317 -685z"></path><path id="pScoUbCf7" d="M5025 11649 c-275 -144 -1254 -655 -2175 -1136 l-1675 -874 -553 -552 c-481 -480 -557 -560 -582 -612 -16 -33 -32 -79 -35 -102 -9 -58 18 -156 61 -221 60 -92 44 -95 366 73 446 233 1987 1038 2853 1490 1300 679 3218 1681 3720 1943 259 134 472 246 474 248 2 2 -436 4 -975 4 l-979 0 -500 -261z"></path></g></g><g id="lMzub0gssr1F6tZcIxcnob" fill="rgb(152,100,227)" style="transform: none;"><g><path id="pXNiKmtz8" d="M14395 17522 c-335 -175 -869 -454 -1185 -619 -316 -165 -888 -464 -1270 -663 -382 -200 -1062 -555 -1510 -789 -449 -234 -1269 -662 -1823 -951 -746 -389 -1006 -530 -1007 -542 0 -17 52 -18 950 -18 l950 0 335 175 c495 259 909 475 1800 940 1218 636 2145 1120 3667 1915 1371 716 1387 725 1365 743 -36 29 -158 86 -222 104 -53 15 -135 17 -750 20 l-690 4 -610 -319z"></path><path id="p1Hsa6GlJS" d="M3433 11797 l-213 -112 -1067 -1068 c-931 -931 -1061 -1065 -1013 -1041 30 15 809 420 1730 902 921 481 1900 991 2175 1135 275 143 514 268 530 278 29 18 5 19 -950 18 l-980 0 -212 -112z"></path></g></g><g id="l5anaAf4WInp3u4O29uK9im" fill="rgb(161,91,230)" style="transform: none;"><g><path id="pS2JLaL1Z" d="M11845 17537 c-319 -167 -1983 -1036 -3697 -1931 -2464 -1287 -3118 -1632 -3118 -1647 0 -18 35 -19 1297 -19 l1297 0 1071 559 c588 307 1417 740 1840 961 424 221 1180 616 1680 877 501 262 1054 551 1230 643 176 92 595 310 930 485 336 175 633 330 660 346 l50 29 -1330 0 -1330 0 -580 -303z"></path><path id="pOjwCksvo" d="M3575 11894 c-38 -8 -108 -34 -155 -57 -68 -33 -103 -60 -185 -140 l-100 -99 195 101 c107 55 242 125 300 155 l105 56 -45 -1 c-25 0 -76 -7 -115 -15z"></path></g></g><g id="l6QipBKh8v5ze1HNrko0qgg" fill="rgb(176,76,237)" style="transform: none;"><g><path id="pcqcM78Sj" d="M8225 17686 c-159 -84 -607 -318 -995 -521 -388 -202 -1105 -577 -1595 -832 -924 -483 -1293 -676 -2095 -1095 -261 -137 -573 -299 -692 -361 -120 -61 -218 -114 -218 -117 0 -3 156 -161 348 -351 372 -372 395 -390 547 -441 l70 -23 725 -3 725 -3 3075 1606 c1691 884 3356 1753 3700 1932 344 179 639 334 655 344 29 18 -25 19 -1965 18 l-1995 0 -290 -153z"></path></g></g><g id="l4DUdo6bDGrHjkMMEg30zHM" fill="rgb(193,58,244)" style="transform: none;"><g><path id="pbjUpi8AI" d="M2915 17399 c-462 -242 -1084 -567 -1382 -723 l-542 -283 832 -831 832 -831 260 135 c280 146 1004 524 1520 794 176 92 680 355 1120 585 440 230 944 493 1120 585 176 92 680 355 1120 585 440 230 802 419 804 421 2 2 -1087 4 -2420 3 l-2424 -1 -840 -439z"></path></g></g><g id="l4mYUk51wyKUVYIfeAtoLZU" fill="rgb(215,36,253)" style="transform: none;"><g><path id="pX12ASL8W" d="M272 17829 c-130 -22 -222 -111 -257 -248 -20 -76 -14 -125 25 -206 25 -52 94 -125 504 -535 l476 -475 62 31 c79 39 2752 1435 2757 1440 9 8 -3517 1 -3567 -7z"></path><path id="pWvZ6JKzp" d="M3570 17614 c-234 -122 -889 -465 -1457 -761 -568 -296 -1032 -542 -1033 -546 -1 -25 54 -2 315 134 160 83 643 336 1075 561 432 226 963 503 1180 616 217 113 399 209 405 214 5 4 -6 8 -25 7 -25 -1 -161 -67 -460 -225z"></path></g></g></svg>