<svg id="Layer_1" data-name="Layer 1" xmlns="http://www.w3.org/2000/svg" viewBox="0 0 773 768"><defs><style>.cls-1{fill:#fff;}.cls-2{fill:#29aae1;}</style></defs><title>twitter</title><path class="cls-1" d="M387.53,761C596,761,765,592,765,383.5S596,6,387.53,6,10,175.1,10,383.5,179.05,761,387.53,761Z"/><path class="cls-2" d="M558.12,296.9c2.74-3.78,2.08-5.67-1.45-4.22A124.18,124.18,0,0,1,529.43,299c-3.94.33-3.83-1.23.27-3.45,7.43-4,15.82-15.76,18.74-23.76,1.61-4.44-.19-6.32-4-4.22-6.93,3.78-19,7.44-27.07,8.78-4.46.66-10.83-1.89-14.24-5.67-4.3-8.55-24.18-16-44.41-16.76-38.86-1.33-71.44,28.64-72.77,66.84a68.07,68.07,0,0,0,.75,13.32c.28,1.44-12.57,1.44-28.69.11-29.18-2.44-85.21-34-101.83-55.62C247,266.7,238.1,259.37,236.34,262c-3.21,5.11-15.51,51.74,5.68,71.06,11.72,10.66,18.63,19.21,15.46,19-5.75-.45-16.51-3.89-21.18-6.67a34.08,34.08,0,0,0-4.65-2.55l0,.67c-.3,8.88,4.8,50.74,29.44,60.29,13.62,5.33,23.32,9.88,21.67,10.32-2.2.78-9.22,1.34-15.66,1.11A82.31,82.31,0,0,1,256,414c-1.17-.33-.34,5.66,1.87,13.44,4,13.88,35.7,39.08,47.87,37.75,6.73-.78,6.64,2.66-.18,7.55-12.37,8.88-87.33,17-90.08,16.65-1.52-.22,4.07,4.22,12.49,9.88,13.42,15.1,56.49,28.54,96.19,29.87,87.77-6.44,175.61-75.39,196.19-153.78,3-9.21,5.77-27.86,6.24-41.63.1-3,.16-6,.14-7.55,0-.78,3.14-3.56,7-6.11,7-4.66,19.39-16.43,24.34-23.2Z"/></svg>