<?xml version="1.0" encoding="utf-8"?>
<!-- Generator: Adobe Illustrator 23.1.0, SVG Export Plug-In . SVG Version: 6.00 Build 0)  -->
<svg version="1.1" id="Layer_1" xmlns="http://www.w3.org/2000/svg" xmlns:xlink="http://www.w3.org/1999/xlink" x="0px" y="0px"
	 viewBox="0 0 600 90" style="enable-background:new 0 0 600 90;" xml:space="preserve">
<style type="text/css">
	.st0{stroke:#000000;stroke-miterlimit:10;}
	.st1{fill:none;stroke:#FFFFFF;stroke-width:5;stroke-miterlimit:10;}
	.st2{fill:#FFFFFF;stroke:#000000;stroke-miterlimit:10;}
	.st3{fill:#FFFFFF;}
	.st4{font-family:'MyriadPro-Regular';}
	.st5{font-size:57.156px;}
</style>
<rect x="-10.83" y="-6.43" class="st0" width="618.38" height="102.64"/>
<path class="st1" d="M49.46,56.83h-9.45c-7.02,0-12.7-5.69-12.7-12.7v0c0-7.02,5.69-12.7,12.7-12.7h9.45c7.02,0,12.7,5.69,12.7,12.7
	v0C62.17,51.14,56.48,56.83,49.46,56.83z"/>
<path class="st1" d="M90.59,57.21h-9.45c-7.02,0-12.7-5.69-12.7-12.7v0c0-7.02,5.69-12.7,12.7-12.7h9.45c7.02,0,12.7,5.69,12.7,12.7
	v0C103.3,51.52,97.61,57.21,90.59,57.21z"/>
<path class="st1" d="M131.82,57.7h-9.45c-7.02,0-12.7-5.69-12.7-12.7v0c0-7.02,5.69-12.7,12.7-12.7h9.45c7.02,0,12.7,5.69,12.7,12.7
	v0C144.53,52.02,138.84,57.7,131.82,57.7z"/>
<rect x="51.13" y="39.73" class="st2" width="26.81" height="9.55"/>
<rect x="92.59" y="40.22" class="st2" width="26.81" height="9.55"/>
<rect x="162.79" y="13.6" class="st3" width="4.09" height="62.81"/>
<text transform="matrix(1 0 0 1 191.8879 64.5633)" class="st3 st4 st5">ChainCollection</text>
</svg>
