<?xml version="1.0" encoding="UTF-8"?><svg id="a" xmlns="http://www.w3.org/2000/svg" viewBox="0 0 549.02 62.8"><defs><style>.b,.c,.d{fill:#fff;}.e,.f{fill:none;stroke-width:5px;}.e,.f,.c{stroke-miterlimit:10;}.e,.c{stroke:#fff;}.f{stroke:#fffdfd;}.g{letter-spacing:.03em;}.h{letter-spacing:0em;}.d{font-family:AGRESSIVE, AGRESSIVE;font-size:30px;isolation:isolate;}</style></defs><path class="e" d="M24.7,43.2H15.2c-7,0-12.7-5.7-12.7-12.7h0c0-7,5.7-12.7,12.7-12.7h9.5c7,0,12.7,5.7,12.7,12.7h0c0,7-5.7,12.7-12.7,12.7Z"/><path class="f" d="M107,44.1h-9.4c-7,0-12.7-5.7-12.7-12.7h0c0-7,5.7-12.7,12.7-12.7h9.4c7,0,12.7,5.7,12.7,12.7h0c0,7-5.7,12.7-12.7,12.7Z"/><rect class="c" x="26.3" y="26.1" width="26.8" height="9.5"/><rect class="c" x="67.8" y="26.6" width="26.8" height="9.5"/><rect class="b" x="138" width="4.1" height="62.8"/><text class="d" transform="translate(151.72 44.1)"><tspan x="0" y="0">C</tspan><tspan class="g" x="28.29" y="0">h</tspan><tspan class="h" x="60.38" y="0">a</tspan><tspan x="88.73" y="0">inCollection</tspan></text></svg>