<svg width="210" height="48" xmlns="http://www.w3.org/2000/svg" viewBox="0 0 210 48"><path class="lr0" d="M110.6,29c-5.3,0-9.5,4.1-9.5,9.5s4.3,9.5,9.5,9.5c5.3,0,9.5-4.2,9.5-9.5C120.1,33.1,115.9,29,110.6,29z M110.6,32.8c3.2,0,5.6,2.4,5.6,5.7s-2.5,5.7-5.6,5.7c-3.2,0-5.6-2.4-5.6-5.7C104.9,35.2,107.4,32.8,110.6,32.8z"></path><path d="M189.7,41.9v-8.7h4.5v-3.8h-4.5v-5.1l-3.9,1.2v3.9h-3.3v3.8h3.3v8.7c0,4.7,2.4,6.4,8.4,5.6V44C191.2,44.2,189.7,44.2,189.7,41.9z"></path><path d="M209.9,43.9H201l8.9-10.7l0,0v-3.6h-13.8v3.6h8.9l-8.9,10.7l0,0v3.7h13.8V43.9z"></path><path d="M52.9,16.2L52.9,16.2L52.9,16.2L52.9,16.2L52.9,16.2L52.9,16.2L52.9,16.2L52.9,16.2C52.9,16.3,52.9,16.3,52.9,16.2C52.9,16.3,52.9,16.3,52.9,16.2C52.9,16.3,52.9,16.3,52.9,16.2z"></path><path class="lr0" d="M54.2,1.2l4-1.2v25.3h-4v-1.4c-1.8,1.3-4.1,2-6.6,1.8c-4.4-0.4-8.1-4-8.5-8.5c0-0.4-0.1-0.7-0.1-1.1l0,0l0,0l0,0l0,0l0,0l0,0c0-0.3,0-0.6,0.1-0.9c0-0.1,0-0.1,0-0.2l0,0l0,0v-0.1v-0.1c0-0.2,0.1-0.4,0.1-0.6c0-0.1,0-0.2,0.1-0.2v-0.1v-0.1c0-0.2,0.1-0.3,0.1-0.5c0-0.1,0.1-0.2,0.1-0.3l0,0v-0.1l0,0c0.1-0.2,0.1-0.3,0.2-0.5c0-0.1,0.1-0.2,0.1-0.3c0,0,0,0,0-0.1c0.1-0.2,0.2-0.3,0.2-0.5c0.1-0.1,0.1-0.2,0.2-0.3l0,0c0.1-0.1,0.2-0.3,0.3-0.4c0.1-0.1,0.2-0.2,0.3-0.3s0.2-0.3,0.3-0.4c0.1-0.1,0.2-0.2,0.3-0.3s0.2-0.2,0.4-0.4c0.1-0.1,0.2-0.2,0.3-0.3s0.3-0.2,0.4-0.3c0.4-0.2,0.5-0.3,0.6-0.4c0.1-0.1,0.3-0.2,0.4-0.3h0.1C43.7,8,43.8,8,43.9,7.9c0.2-0.1,0.3-0.2,0.5-0.2h0.1l0,0c0.1,0,0.2-0.1,0.3-0.1c0.2-0.1,0.3-0.1,0.5-0.2l0,0l0,0h0.1l0,0c0.1,0,0.2-0.1,0.3-0.1c0.2-0.1,0.3-0.1,0.5-0.1l0,0h0.1h0.1c0.1,0,0.2,0,0.3-0.1c0.2,0,0.4-0.1,0.6-0.1l0,0h0.1c0.1,0,0.1,0,0.2,0c0.3,0,0.7-0.1,1-0.1c2.1,0,4,0.7,5.6,1.8L54.2,1.2L54.2,1.2z M47.4,21.7c3.6,0.8,6.8-2,6.8-5.4v-0.1c0-3.1-2.5-5.6-5.6-5.6c-0.2,0-0.4,0-0.6,0h-0.1l0,0c0,0,0,0-0.1,0s-0.3,0-0.4,0.1h-0.1l0,0l0,0c-0.1,0-0.2,0.1-0.3,0.1s-0.2,0.1-0.2,0.1c-0.1,0-0.2,0.1-0.3,0.1s-0.1,0.1-0.2,0.1c-0.1,0.1-0.2,0.1-0.3,0.2c-0.1,0-0.1,0.1-0.2,0.1c-0.1,0.1-0.2,0.1-0.3,0.2c0,0,0,0-0.1,0l-0.1,0.1c-0.1,0.1-0.2,0.2-0.3,0.3l0,0l0,0l0,0l0,0c0,0,0,0-0.1,0.1s-0.3,0.3-0.4,0.4l0,0l0,0c-0.1,0.1-0.2,0.3-0.3,0.4c0,0,0,0.1-0.1,0.1c0,0,0,0,0,0.1c-0.1,0.1-0.1,0.2-0.2,0.3c0,0.1-0.1,0.1-0.1,0.2l0,0c-0.1,0.1-0.1,0.2-0.1,0.3s-0.1,0.1-0.1,0.2l0,0c0,0.1-0.1,0.2-0.1,0.3s0,0.2-0.1,0.2c0,0.1,0,0.2-0.1,0.4c0,0.1,0,0.2,0,0.2c0,0.1,0,0.3,0,0.4v0.1c0,0.1,0,0.1,0,0.2c0,0.4,0,0.8,0.1,1.3C43.6,19.6,45.3,21.3,47.4,21.7z"></path><path d="M14.5,16.2L14.5,16.2L14.5,16.2L14.5,16.2C14.5,16.3,14.5,16.3,14.5,16.2C14.5,16.3,14.5,16.3,14.5,16.2z"></path><path class="lr0" d="M15.5,7.3v1.2C14,7.4,12,6.7,10,6.7c-5.6,0-10.1,4.9-9.5,10.6c0.5,4.4,4.1,8,8.5,8.5c2.5,0.2,4.8-0.5,6.6-1.8v1.4h4V7.3H15.5z M15.5,16.3c0,3.5-3.2,6.2-6.8,5.4c-2.1-0.4-3.8-2.1-4.3-4.3c-0.7-3.6,2.1-6.8,5.6-6.8C13,10.6,15.5,13.1,15.5,16.3L15.5,16.3z"></path><path d="M131.1,29.2v4.2c-2.6-0.2-5.6,1-5.6,5.1v9.1h-3.9V29.5h3.9v3C126.6,30.1,128.8,29.2,131.1,29.2z"></path><path class="lr0" d="M140.5,29c-5.3,0-9.5,4.1-9.5,9.5s4.3,9.5,9.5,9.5c5.3,0,9.5-4.2,9.5-9.5C150.1,33.1,145.9,29,140.5,29z M140.5,32.8c3.2,0,5.6,2.4,5.6,5.7s-2.5,5.7-5.6,5.7c-3.2,0-5.6-2.4-5.6-5.7C134.9,35.2,137.4,32.8,140.5,32.8z"></path><path d="M175.8,29.5l-5.7,18.1h-3.8l-3.8-12.2l-3.8,12.2h-3.8l-5.7-18.1h4.1l3.5,12.5l3.8-12.5h3.7l3.8,12.5l3.5-12.5C171.6,29.5,175.8,29.5,175.8,29.5z"></path><path d="M181,29.5h-3.9v18.1h3.9V29.5z"></path><path d="M69.2,7v4.2c-2.6-0.2-5.6,1-5.6,5.1v9.1h-3.9V7.3h3.9v3C64.7,7.9,66.9,7,69.2,7z"></path><path class="lr0" d="M87.1,21.9L87.1,21.9L87.1,21.9L87.1,21.9L87.1,21.9v9.9c1.2-1.9,3.1-2.8,5.6-2.8c4,0,6.9,2.7,6.9,7.4v11.2h-3.9V36.9c0-2.7-1.6-4.2-4-4.2c-2.6,0-4.6,1.5-4.6,5.2v9.7h-3.9V25.1c-1.2,0.5-2.5,0.8-4,0.8c-6,0-9.8-4.1-9.8-9.5s3.9-9.5,9.5-9.5c5.4,0,9.1,4.3,9.1,9.5c0,0.5-0.1,1.1-0.1,1.6H73.4c0.6,2.8,2.9,4.3,5.8,4.3c1.7,0,3-0.6,4-1.4c0.3-0.2,0.5-0.5,0.7-0.8L87.1,21.9z M78.8,10.4c2.4,0,4.6,1.3,5.2,4.4H73.4C73.9,12.1,75.9,10.4,78.8,10.4z"></path><path class="lr0" d="M103.3,20c-0.9,1.3-2.5,2.2-4.7,2.2c-2.9,0-5.2-1.4-5.8-4.3h14.4c0.1-0.5,0.1-1.1,0.1-1.6c0-5.2-3.7-9.5-9.1-9.5c-5.7,0-9.5,4.2-9.5,9.5c0,5.4,3.9,9.5,9.8,9.5c3.5,0,6.3-1.5,7.9-3.9L103.3,20z M98.3,10.4c2.4,0,4.6,1.3,5.2,4.4H92.8C93.4,12.1,95.4,10.4,98.3,10.4z"></path><path class="lr0" d="M148,22.3c2.2,0,3.8-1,4.7-2.2l3.2,1.9c-1.7,2.5-4.4,3.9-7.9,3.9c-6,0-9.8-4.1-9.8-9.5s3.9-9.5,9.5-9.5c5.4,0,9.1,4.3,9.1,9.5c0,0.5-0.1,1.1-0.1,1.6h-14.4C142.8,20.8,145.1,22.3,148,22.3z M152.8,14.8c-0.5-3.1-2.8-4.4-5.2-4.4c-2.9,0-4.9,1.7-5.5,4.4C142.1,14.8,152.8,14.8,152.8,14.8z"></path><path d="M177.1,25.4h3.9v-3.5h-3.9V25.4z"></path><path d="M30.6,6.8c-2.5,0-4.4,0.9-5.6,2.8V7.5l0,0V7.2h-3.9v1.5l0,0v16.6H25v-9.7c0-3.7,2-5.2,4.6-5.2c2.5,0,4,1.4,4,4.2v10.7h3.9v-11C37.6,9.6,34.7,6.8,30.6,6.8z"></path><path d="M162.6,25.4h-3.9V7.3h3.9v2.3c1.2-1.9,3.1-2.8,5.6-2.8c4,0,6.9,2.7,6.9,7.4v11.1h-3.9V14.7c0-2.7-1.6-4.2-4-4.2c-2.6,0-4.6,1.5-4.6,5.2V25.4z"></path><path d="M112.5,12.3c0-1.3,1.2-1.9,2.6-1.9s2.6,0.6,3.3,1.8l3.4-1.7c-1.3-2.3-3.7-3.7-6.7-3.7c-3.7,0-6.6,2.1-6.6,5.5c0,3.8,3.3,4.7,6.1,5.5c2,0.6,3.6,1,3.6,2.4s-1.3,2-3.1,2c-1.7,0-3.1-0.7-3.8-2l-3.5,1.7c1.2,2.4,3.8,3.9,7.2,3.9c3.9,0,7.1-2,7.1-5.6c0-3.9-3.4-4.9-6.1-5.6C114.2,14.1,112.5,13.6,112.5,12.3z"></path><path d="M130.2,10.4c-1.4,0-2.6,0.6-2.6,1.9c0,1.4,1.7,1.8,3.6,2.4c2.8,0.8,6.1,1.7,6.1,5.6c0,3.6-3.1,5.6-7.1,5.6c-3.5,0-6-1.5-7.2-3.9l3.5-1.7c0.7,1.3,2,2,3.8,2c1.7,0,3.1-0.6,3.1-2c0-1.3-1.7-1.8-3.6-2.4c-2.8-0.8-6.1-1.7-6.1-5.5c0-3.4,2.9-5.5,6.6-5.5c2.9,0,5.4,1.4,6.7,3.7l-3.4,1.7C132.8,11,131.6,10.4,130.2,10.4z"></path></svg>